<?xml version="1.0" standalone="no"?>
<!DOCTYPE svg PUBLIC "-//W3C//DTD SVG 20010904//EN"
 "http://www.w3.org/TR/2001/REC-SVG-20010904/DTD/svg10.dtd">
<svg version="1.0" xmlns="http://www.w3.org/2000/svg"
 width="954.000000pt" height="413.000000pt" viewBox="0 0 954.000000 413.000000"
 preserveAspectRatio="xMidYMid meet">

<g transform="translate(0.000000,413.000000) scale(0.100000,-0.100000)"
fill="#000000" stroke="none">
<path d="M0 4120 c0 -7 563 -10 1670 -10 1107 0 1670 3 1670 10 0 7 -563 10
-1670 10 -1107 0 -1670 -3 -1670 -10z"/>
<path d="M3560 4120 c0 -7 830 -10 2470 -10 1640 0 2470 3 2470 10 0 7 -830
10 -2470 10 -1640 0 -2470 -3 -2470 -10z"/>
<path d="M410 2755 l0 -995 1479 0 c957 0 1497 4 1532 10 115 22 230 104 280
201 49 97 49 90 49 962 l0 817 -1670 0 -1670 0 0 -995z m962 449 c72 -20 139
-76 163 -136 24 -60 23 -161 -2 -218 -45 -103 -144 -150 -330 -158 l-123 -5 0
-168 c0 -197 -1 -199 -102 -199 l-58 0 0 450 0 450 197 0 c152 0 210 -4 255
-16z m1018 -38 c0 -82 -7 -86 -159 -86 l-128 0 -6 -362 c-8 -421 -2 -398 -108
-398 l-59 0 0 380 0 380 -135 0 -135 0 0 70 0 70 365 0 365 0 0 -54z m279 45
c12 -7 57 -122 136 -345 65 -185 121 -336 125 -336 5 0 13 15 19 33 173 497
226 639 243 648 10 5 52 9 92 7 l74 -3 -176 -447 -177 -448 -75 0 -75 0 -164
418 c-91 229 -171 432 -178 450 l-13 32 76 0 c41 0 83 -4 93 -9z"/>
<path d="M1080 2956 l0 -129 103 5 c71 3 114 10 141 23 82 39 88 166 9 205
-16 8 -77 16 -141 19 l-112 6 0 -129z"/>
<path d="M3970 2938 c0 -517 -4 -837 -11 -878 -19 -118 -70 -205 -157 -267
l-46 -33 2577 0 2577 0 0 995 0 995 -2470 0 -2470 0 0 -812z m2211 269 c31
-15 64 -36 74 -47 18 -20 18 -21 -24 -64 l-42 -43 -30 28 c-41 38 -89 52 -164
47 -109 -7 -172 -80 -146 -169 16 -53 57 -81 183 -124 136 -47 188 -80 224
-141 54 -92 30 -243 -48 -310 -132 -110 -356 -103 -492 16 l-37 33 43 38 c24
21 47 38 52 39 4 0 24 -14 44 -31 50 -44 96 -61 164 -60 107 0 174 60 172 153
-2 76 -41 107 -202 163 -159 55 -210 100 -232 203 -21 96 23 201 105 252 62
39 113 50 211 47 74 -2 100 -8 145 -30z m709 1 c30 -14 66 -34 80 -46 l25 -21
-45 -45 -44 -46 -26 24 c-42 39 -85 56 -146 56 -104 0 -174 -54 -174 -134 0
-80 30 -106 191 -162 114 -39 151 -58 191 -101 55 -57 73 -155 46 -245 -15
-52 -77 -121 -132 -148 -131 -63 -320 -36 -426 61 l-34 32 49 43 50 43 30 -31
c90 -93 260 -93 322 1 27 40 30 98 8 140 -19 37 -61 62 -166 96 -195 64 -258
127 -259 258 0 119 65 201 195 244 65 21 199 12 265 -19z m-2180 -350 c73
-200 134 -364 135 -365 0 -1 61 162 135 362 l134 365 68 0 c37 0 68 -1 68 -3
0 -1 -78 -200 -173 -442 l-172 -440 -61 -3 c-43 -2 -63 1 -66 10 -3 7 -80 205
-172 439 -91 234 -166 429 -166 432 0 4 31 7 68 7 l69 0 133 -362z m800 -83
l0 -445 -65 0 -65 0 0 445 0 445 65 0 65 0 0 -445z m1790 0 l0 -445 -65 0 -65
0 0 445 0 445 65 0 65 0 0 -445z m544 103 c72 -185 133 -335 135 -333 2 2 61
154 131 337 l128 333 101 3 101 3 0 -446 0 -445 -65 0 -65 0 -2 365 -3 366
-145 -366 -145 -366 -43 3 -43 3 -142 359 -142 360 -3 -362 -2 -362 -65 0 -65
0 0 445 0 446 101 -3 102 -3 131 -337z"/>
<path d="M4820 1102 c-51 -25 -73 -71 -78 -163 l-5 -79 -38 0 c-38 0 -39 -1
-39 -35 0 -34 1 -35 40 -35 l40 0 0 -175 0 -175 40 0 40 0 0 175 0 175 50 0
50 0 0 35 0 35 -51 0 -51 0 4 74 c4 90 22 116 78 116 34 0 38 3 42 30 3 17 2
32 0 35 -12 12 -90 4 -122 -13z"/>
<path d="M780 775 l0 -335 40 0 40 0 0 130 c0 142 10 185 51 214 37 26 101 21
130 -10 23 -24 24 -32 27 -180 l3 -154 40 0 39 0 0 153 c0 167 -13 219 -63
252 -58 37 -148 31 -196 -14 l-31 -29 0 154 0 154 -40 0 -40 0 0 -335z"/>
<path d="M3840 955 l0 -156 -41 33 c-38 30 -47 33 -113 33 -63 0 -78 -4 -115
-28 -128 -85 -117 -312 19 -382 69 -36 163 -27 220 21 l30 26 0 -31 c0 -29 2
-31 40 -31 l40 0 0 335 0 335 -40 0 -40 0 0 -155z m-60 -174 c86 -61 84 -208
-3 -261 -86 -53 -197 2 -213 105 -19 133 114 229 216 156z"/>
<path d="M2782 1048 c-27 -27 -3 -88 34 -88 46 0 73 57 42 88 -15 15 -61 15
-76 0z"/>
<path d="M490 920 l0 -60 -40 0 c-39 0 -40 -1 -40 -35 0 -34 1 -35 40 -35 l40
0 0 -125 c0 -186 23 -225 132 -225 l58 0 0 34 c0 34 -1 35 -34 29 -26 -4 -39
0 -55 16 -19 19 -21 32 -21 146 l0 125 55 0 55 0 0 35 0 35 -55 0 -55 0 0 60
0 60 -40 0 -40 0 0 -60z"/>
<path d="M9080 920 l0 -60 -40 0 c-39 0 -40 -1 -40 -35 0 -34 1 -35 40 -35
l40 0 0 -135 c0 -188 15 -215 124 -215 60 0 70 7 61 43 -5 19 -11 23 -36 19
-19 -3 -37 2 -49 13 -18 16 -20 32 -20 147 l0 128 55 0 55 0 0 35 0 35 -55 0
-55 0 0 60 0 60 -40 0 -40 0 0 -60z"/>
<path d="M1365 851 c-137 -62 -169 -253 -60 -358 81 -77 217 -82 301 -9 l37
32 -30 22 c-28 19 -32 20 -44 6 -38 -46 -129 -58 -184 -24 -30 19 -65 72 -65
99 0 8 53 11 171 11 l170 0 -7 48 c-8 56 -28 109 -52 136 -47 53 -162 71 -237
37z m171 -73 c13 -13 28 -38 33 -56 l10 -32 -130 0 -130 0 7 23 c8 29 32 55
69 79 40 26 108 19 141 -14z"/>
<path d="M2154 856 c-17 -8 -40 -26 -52 -41 l-22 -28 0 37 c0 36 0 36 -41 36
l-42 0 7 -37 c3 -21 6 -116 6 -211 l0 -173 38 3 37 3 5 147 c5 146 5 147 34
177 24 25 38 31 72 31 34 0 47 -5 63 -26 19 -24 21 -40 21 -180 l0 -154 40 0
40 0 0 118 c0 132 11 184 46 219 20 20 32 24 71 21 37 -2 50 -8 67 -31 19 -25
21 -45 24 -178 l4 -149 40 0 40 0 -3 163 c-4 140 -7 167 -24 196 -51 86 -191
95 -253 16 -24 -30 -24 -30 -40 1 -24 47 -115 67 -178 40z"/>
<path d="M3154 856 c-17 -8 -40 -27 -52 -42 l-21 -29 -1 38 c0 37 0 37 -41 37
-33 0 -40 -3 -35 -16 3 -9 6 -103 6 -210 l0 -194 39 0 40 0 3 151 3 151 33 29
c28 26 40 30 79 27 37 -2 50 -9 67 -31 19 -25 21 -45 24 -178 l3 -149 41 0 40
0 -4 163 c-3 141 -6 167 -23 197 -37 63 -127 88 -201 56z"/>
<path d="M4311 857 c-50 -16 -117 -84 -130 -132 -29 -105 8 -208 93 -260 42
-25 58 -29 120 -29 60 0 79 4 119 27 120 71 142 243 43 342 -61 60 -156 81
-245 52z m120 -57 c118 -33 142 -216 36 -280 -72 -44 -163 -14 -199 66 -44
100 13 205 122 223 3 1 21 -4 41 -9z"/>
<path d="M5314 851 c-18 -10 -39 -30 -48 -42 -16 -23 -16 -23 -16 14 0 37 0
37 -40 37 l-40 0 0 -210 0 -210 40 0 40 0 0 128 c1 182 26 232 118 232 70 0
76 -17 80 -201 l3 -159 40 0 39 0 0 130 c0 142 10 185 51 214 13 9 38 16 55
16 82 0 94 -27 94 -215 l0 -145 40 0 40 0 0 163 c0 181 -8 208 -72 247 -62 38
-165 17 -206 -41 -12 -17 -15 -16 -46 18 -28 31 -40 37 -87 40 -41 3 -61 0
-85 -16z"/>
<path d="M6014 845 c-76 -38 -108 -89 -112 -180 -3 -58 0 -80 17 -112 81 -159
321 -159 402 0 31 60 24 169 -14 224 -39 56 -95 85 -176 90 -57 4 -73 1 -117
-22z m180 -64 c38 -21 66 -76 66 -129 0 -52 -19 -91 -60 -126 -64 -53 -163
-27 -205 55 -20 37 -19 103 1 145 19 41 33 53 81 69 42 15 73 11 117 -14z"/>
<path d="M6944 851 c-109 -50 -154 -194 -95 -309 31 -62 82 -95 163 -107 62
-9 145 15 182 53 l27 30 -29 21 c-27 19 -31 19 -43 5 -42 -51 -147 -58 -196
-13 -22 20 -53 75 -53 94 0 3 77 5 170 5 l170 0 0 28 c0 50 -29 127 -57 154
-60 58 -161 74 -239 39z m168 -67 c21 -19 53 -83 45 -90 -2 -3 -61 -3 -131 -2
l-126 3 18 35 c26 52 77 83 130 77 24 -3 52 -13 64 -23z"/>
<path d="M7475 854 c-16 -8 -38 -25 -47 -37 l-17 -22 -7 33 c-6 28 -10 32 -40
32 l-34 0 0 -210 0 -210 40 0 40 0 0 130 c0 142 10 185 51 214 13 9 38 16 55
16 82 0 94 -27 94 -215 l0 -145 40 0 40 0 0 129 c0 71 5 142 11 158 18 48 49
73 90 73 88 0 99 -24 99 -215 l0 -145 40 0 40 0 0 158 c0 129 -3 163 -18 192
-47 94 -178 109 -253 29 -27 -29 -28 -30 -39 -9 -29 54 -123 76 -185 44z"/>
<path d="M8185 851 c-186 -86 -160 -367 39 -412 75 -16 150 0 201 44 l37 32
-30 22 c-27 20 -32 21 -43 7 -38 -46 -129 -58 -184 -24 -30 19 -65 72 -65 99
0 8 52 11 165 11 l165 0 0 48 c0 51 -26 117 -56 144 -55 49 -159 62 -229 29z
m145 -56 c35 -18 60 -52 60 -82 0 -23 -2 -23 -126 -23 l-125 0 7 23 c25 80
112 119 184 82z"/>
<path d="M8715 855 c-16 -9 -40 -28 -52 -43 l-23 -27 0 38 c0 36 -1 37 -37 37
l-38 0 3 -210 3 -210 39 0 40 0 0 138 c0 118 3 141 20 169 25 41 52 55 102 51
31 -2 46 -10 62 -31 19 -25 21 -45 24 -178 l3 -149 41 0 40 0 -4 163 c-3 141
-6 167 -23 197 -37 63 -132 89 -200 55z"/>
<path d="M2780 650 l0 -210 40 0 40 0 0 210 0 210 -40 0 -40 0 0 -210z"/>
<path d="M6370 853 c0 -5 38 -98 83 -208 l82 -200 44 0 45 0 83 205 c45 113
83 206 83 208 0 1 -19 2 -42 2 l-43 0 -60 -161 c-33 -88 -62 -162 -65 -164 -3
-2 -32 71 -65 161 l-60 164 -42 0 c-24 0 -43 -3 -43 -7z"/>
</g>
</svg>
